<?xml version="1.0" encoding="UTF-8" standalone="no"?>
<!DOCTYPE svg PUBLIC "-//W3C//DTD SVG 1.1//EN"
 "http://www.w3.org/Graphics/SVG/1.1/DTD/svg11.dtd">
<!-- Generated by graphviz version 2.43.0 (0)
 -->
<!-- Title: G Pages: 1 -->
<svg width="470pt" height="504pt"
 viewBox="0.00 0.00 469.62 504.00" xmlns="http://www.w3.org/2000/svg" xmlns:xlink="http://www.w3.org/1999/xlink">
<g id="graph0" class="graph" transform="scale(1 1) rotate(0) translate(4 500)">
<title>G</title>
<polygon fill="white" stroke="transparent" points="-4,4 -4,-500 465.62,-500 465.62,4 -4,4"/>
<!-- render1 -->
<g id="node1" class="node">
<title>render1</title>
<path fill="#dddddd" stroke="#dddddd" d="M93.28,-326C93.28,-326 48.34,-326 48.34,-326 42.34,-326 36.34,-320 36.34,-314 36.34,-314 36.34,-296 36.34,-296 36.34,-290 42.34,-284 48.34,-284 48.34,-284 93.28,-284 93.28,-284 99.28,-284 105.28,-290 105.28,-296 105.28,-296 105.28,-314 105.28,-314 105.28,-320 99.28,-326 93.28,-326"/>
<text text-anchor="middle" x="70.81" y="-300.8" font-family="Segoe UI" font-size="14.00">render</text>
</g>
<!-- created -->
<g id="node2" class="node">
<title>created</title>
<path fill="none" stroke="#000000" d="M129.43,-255C129.43,-255 12.19,-255 12.19,-255 6.19,-255 0.19,-249 0.19,-243 0.19,-243 0.19,-225 0.19,-225 0.19,-219 6.19,-213 12.19,-213 12.19,-213 129.43,-213 129.43,-213 135.43,-213 141.43,-219 141.43,-225 141.43,-225 141.43,-243 141.43,-243 141.43,-249 135.43,-255 129.43,-255"/>
<text text-anchor="start" x="14" y="-230.8" font-family="Segoe UI" font-style="italic" font-size="14.00">Instances Created</text>
</g>
<!-- render1&#45;&gt;created -->
<g id="edge3" class="edge">
<title>render1&#45;&gt;created</title>
<path fill="none" stroke="black" d="M70.81,-283.67C70.81,-277.97 70.81,-271.64 70.81,-265.48"/>
<polygon fill="black" stroke="black" points="74.31,-265.42 70.81,-255.42 67.31,-265.42 74.31,-265.42"/>
</g>
<!-- didMount -->
<g id="node5" class="node">
<title>didMount</title>
<path fill="#dddddd" stroke="#dddddd" d="M101.4,-184C101.4,-184 40.22,-184 40.22,-184 34.22,-184 28.22,-178 28.22,-172 28.22,-172 28.22,-154 28.22,-154 28.22,-148 34.22,-142 40.22,-142 40.22,-142 101.4,-142 101.4,-142 107.4,-142 113.4,-148 113.4,-154 113.4,-154 113.4,-172 113.4,-172 113.4,-178 107.4,-184 101.4,-184"/>
<text text-anchor="middle" x="70.81" y="-158.8" font-family="Segoe UI" font-size="14.00">didMount</text>
</g>
<!-- created&#45;&gt;didMount -->
<g id="edge4" class="edge">
<title>created&#45;&gt;didMount</title>
<path fill="none" stroke="black" d="M70.81,-212.67C70.81,-206.97 70.81,-200.64 70.81,-194.48"/>
<polygon fill="black" stroke="black" points="74.31,-194.42 70.81,-184.42 67.31,-194.42 74.31,-194.42"/>
</g>
<!-- mount -->
<g id="node3" class="node">
<title>mount</title>
<path fill="none" stroke="#000000" d="M112.68,-496C112.68,-496 28.94,-496 28.94,-496 22.94,-496 16.94,-490 16.94,-484 16.94,-484 16.94,-438 16.94,-438 16.94,-432 22.94,-426 28.94,-426 28.94,-426 112.68,-426 112.68,-426 118.68,-426 124.68,-432 124.68,-438 124.68,-438 124.68,-484 124.68,-484 124.68,-490 118.68,-496 112.68,-496"/>
<text text-anchor="start" x="42.01" y="-471.8" font-family="Segoe UI" font-weight="bold" font-size="14.00">Mounting</text>
<text text-anchor="start" x="31.12" y="-443.8" font-family="monospace" font-size="14.00">Roact.mount</text>
</g>
<!-- init -->
<g id="node4" class="node">
<title>init</title>
<path fill="#dddddd" stroke="#dddddd" d="M85.81,-397C85.81,-397 55.81,-397 55.81,-397 49.81,-397 43.81,-391 43.81,-385 43.81,-385 43.81,-367 43.81,-367 43.81,-361 49.81,-355 55.81,-355 55.81,-355 85.81,-355 85.81,-355 91.81,-355 97.81,-361 97.81,-367 97.81,-367 97.81,-385 97.81,-385 97.81,-391 91.81,-397 85.81,-397"/>
<text text-anchor="middle" x="70.81" y="-371.8" font-family="Segoe UI" font-size="14.00">init</text>
</g>
<!-- mount&#45;&gt;init -->
<g id="edge1" class="edge">
<title>mount&#45;&gt;init</title>
<path fill="none" stroke="black" d="M70.81,-425.76C70.81,-419.73 70.81,-413.49 70.81,-407.57"/>
<polygon fill="black" stroke="black" points="74.31,-407.38 70.81,-397.38 67.31,-407.38 74.31,-407.38"/>
</g>
<!-- init&#45;&gt;render1 -->
<g id="edge2" class="edge">
<title>init&#45;&gt;render1</title>
<path fill="none" stroke="black" d="M70.81,-354.67C70.81,-348.97 70.81,-342.64 70.81,-336.48"/>
<polygon fill="black" stroke="black" points="74.31,-336.42 70.81,-326.42 67.31,-336.42 74.31,-336.42"/>
</g>
<!-- updated -->
<g id="node6" class="node">
<title>updated</title>
<path fill="none" stroke="#000000" d="M275.05,-113C275.05,-113 154.57,-113 154.57,-113 148.57,-113 142.57,-107 142.57,-101 142.57,-101 142.57,-83 142.57,-83 142.57,-77 148.57,-71 154.57,-71 154.57,-71 275.05,-71 275.05,-71 281.05,-71 287.05,-77 287.05,-83 287.05,-83 287.05,-101 287.05,-101 287.05,-107 281.05,-113 275.05,-113"/>
<text text-anchor="start" x="156.44" y="-88.8" font-family="Segoe UI" font-style="italic" font-size="14.00">Instances Updated</text>
</g>
<!-- didUpdate -->
<g id="node12" class="node">
<title>didUpdate</title>
<path fill="#dddddd" stroke="#dddddd" d="M248.64,-42C248.64,-42 180.98,-42 180.98,-42 174.98,-42 168.98,-36 168.98,-30 168.98,-30 168.98,-12 168.98,-12 168.98,-6 174.98,0 180.98,0 180.98,0 248.64,0 248.64,0 254.64,0 260.64,-6 260.64,-12 260.64,-12 260.64,-30 260.64,-30 260.64,-36 254.64,-42 248.64,-42"/>
<text text-anchor="middle" x="214.81" y="-16.8" font-family="Segoe UI" font-size="14.00">didUpdate</text>
</g>
<!-- updated&#45;&gt;didUpdate -->
<g id="edge10" class="edge">
<title>updated&#45;&gt;didUpdate</title>
<path fill="none" stroke="black" d="M214.81,-70.67C214.81,-64.97 214.81,-58.64 214.81,-52.48"/>
<polygon fill="black" stroke="black" points="218.31,-52.42 214.81,-42.42 211.31,-52.42 218.31,-52.42"/>
</g>
<!-- update -->
<g id="node7" class="node">
<title>update</title>
<path fill="none" stroke="#000000" d="M258.59,-496C258.59,-496 171.03,-496 171.03,-496 165.03,-496 159.03,-490 159.03,-484 159.03,-484 159.03,-438 159.03,-438 159.03,-432 165.03,-426 171.03,-426 171.03,-426 258.59,-426 258.59,-426 264.59,-426 270.59,-432 270.59,-438 270.59,-438 270.59,-484 270.59,-484 270.59,-490 264.59,-496 258.59,-496"/>
<text text-anchor="start" x="186.79" y="-471.8" font-family="Segoe UI" font-weight="bold" font-size="14.00">Updating</text>
<text text-anchor="start" x="173.17" y="-443.8" font-family="monospace" font-size="14.00">Roact.update</text>
</g>
<!-- getDerivedStateFromProps -->
<g id="node8" class="node">
<title>getDerivedStateFromProps</title>
<path fill="#dddddd" stroke="#dddddd" d="M301.44,-397C301.44,-397 128.18,-397 128.18,-397 122.18,-397 116.18,-391 116.18,-385 116.18,-385 116.18,-367 116.18,-367 116.18,-361 122.18,-355 128.18,-355 128.18,-355 301.44,-355 301.44,-355 307.44,-355 313.44,-361 313.44,-367 313.44,-367 313.44,-385 313.44,-385 313.44,-391 307.44,-397 301.44,-397"/>
<text text-anchor="middle" x="214.81" y="-371.8" font-family="Segoe UI" font-size="14.00">getDerivedStateFromProps</text>
</g>
<!-- update&#45;&gt;getDerivedStateFromProps -->
<g id="edge5" class="edge">
<title>update&#45;&gt;getDerivedStateFromProps</title>
<path fill="none" stroke="black" d="M214.81,-425.76C214.81,-419.73 214.81,-413.49 214.81,-407.57"/>
<polygon fill="black" stroke="black" points="218.31,-407.38 214.81,-397.38 211.31,-407.38 218.31,-407.38"/>
</g>
<!-- shouldUpdate -->
<g id="node9" class="node">
<title>shouldUpdate</title>
<path fill="#dddddd" stroke="#dddddd" d="M260.21,-326C260.21,-326 169.41,-326 169.41,-326 163.41,-326 157.41,-320 157.41,-314 157.41,-314 157.41,-296 157.41,-296 157.41,-290 163.41,-284 169.41,-284 169.41,-284 260.21,-284 260.21,-284 266.21,-284 272.21,-290 272.21,-296 272.21,-296 272.21,-314 272.21,-314 272.21,-320 266.21,-326 260.21,-326"/>
<text text-anchor="middle" x="214.81" y="-300.8" font-family="Segoe UI" font-size="14.00">shouldUpdate</text>
</g>
<!-- getDerivedStateFromProps&#45;&gt;shouldUpdate -->
<g id="edge6" class="edge">
<title>getDerivedStateFromProps&#45;&gt;shouldUpdate</title>
<path fill="none" stroke="black" d="M214.81,-354.67C214.81,-348.97 214.81,-342.64 214.81,-336.48"/>
<polygon fill="black" stroke="black" points="218.31,-336.42 214.81,-326.42 211.31,-336.42 218.31,-336.42"/>
</g>
<!-- willUpdate -->
<g id="node10" class="node">
<title>willUpdate</title>
<path fill="#dddddd" stroke="#dddddd" d="M248.9,-255C248.9,-255 180.72,-255 180.72,-255 174.72,-255 168.72,-249 168.72,-243 168.72,-243 168.72,-225 168.72,-225 168.72,-219 174.72,-213 180.72,-213 180.72,-213 248.9,-213 248.9,-213 254.9,-213 260.9,-219 260.9,-225 260.9,-225 260.9,-243 260.9,-243 260.9,-249 254.9,-255 248.9,-255"/>
<text text-anchor="middle" x="214.81" y="-229.8" font-family="Segoe UI" font-size="14.00">willUpdate</text>
</g>
<!-- shouldUpdate&#45;&gt;willUpdate -->
<g id="edge7" class="edge">
<title>shouldUpdate&#45;&gt;willUpdate</title>
<path fill="none" stroke="black" d="M214.81,-283.67C214.81,-277.97 214.81,-271.64 214.81,-265.48"/>
<polygon fill="black" stroke="black" points="218.31,-265.42 214.81,-255.42 211.31,-265.42 218.31,-265.42"/>
</g>
<!-- render -->
<g id="node11" class="node">
<title>render</title>
<path fill="#dddddd" stroke="#dddddd" d="M237.28,-184C237.28,-184 192.34,-184 192.34,-184 186.34,-184 180.34,-178 180.34,-172 180.34,-172 180.34,-154 180.34,-154 180.34,-148 186.34,-142 192.34,-142 192.34,-142 237.28,-142 237.28,-142 243.28,-142 249.28,-148 249.28,-154 249.28,-154 249.28,-172 249.28,-172 249.28,-178 243.28,-184 237.28,-184"/>
<text text-anchor="middle" x="214.81" y="-158.8" font-family="Segoe UI" font-size="14.00">render</text>
</g>
<!-- willUpdate&#45;&gt;render -->
<g id="edge8" class="edge">
<title>willUpdate&#45;&gt;render</title>
<path fill="none" stroke="black" d="M214.81,-212.67C214.81,-206.97 214.81,-200.64 214.81,-194.48"/>
<polygon fill="black" stroke="black" points="218.31,-194.42 214.81,-184.42 211.31,-194.42 218.31,-194.42"/>
</g>
<!-- render&#45;&gt;updated -->
<g id="edge9" class="edge">
<title>render&#45;&gt;updated</title>
<path fill="none" stroke="black" d="M214.81,-141.67C214.81,-135.97 214.81,-129.64 214.81,-123.48"/>
<polygon fill="black" stroke="black" points="218.31,-123.42 214.81,-113.42 211.31,-123.42 218.31,-123.42"/>
</g>
<!-- unmounted -->
<g id="node13" class="node">
<title>unmounted</title>
<path fill="none" stroke="#000000" d="M449.43,-326C449.43,-326 318.19,-326 318.19,-326 312.19,-326 306.19,-320 306.19,-314 306.19,-314 306.19,-296 306.19,-296 306.19,-290 312.19,-284 318.19,-284 318.19,-284 449.43,-284 449.43,-284 455.43,-284 461.43,-290 461.43,-296 461.43,-296 461.43,-314 461.43,-314 461.43,-320 455.43,-326 449.43,-326"/>
<text text-anchor="start" x="320" y="-301.8" font-family="Segoe UI" font-style="italic" font-size="14.00">Instances Destroyed</text>
</g>
<!-- unmount -->
<g id="node14" class="node">
<title>unmount</title>
<path fill="none" stroke="#000000" d="M433.25,-496C433.25,-496 334.37,-496 334.37,-496 328.37,-496 322.37,-490 322.37,-484 322.37,-484 322.37,-438 322.37,-438 322.37,-432 328.37,-426 334.37,-426 334.37,-426 433.25,-426 433.25,-426 439.25,-426 445.25,-432 445.25,-438 445.25,-438 445.25,-484 445.25,-484 445.25,-490 439.25,-496 433.25,-496"/>
<text text-anchor="start" x="346.07" y="-471.8" font-family="Segoe UI" font-weight="bold" font-size="14.00">Unmounting</text>
<text text-anchor="start" x="336.34" y="-443.8" font-family="monospace" font-size="14.00">Roact.unmount</text>
</g>
<!-- willUnmount -->
<g id="node15" class="node">
<title>willUnmount</title>
<path fill="#dddddd" stroke="#dddddd" d="M424.06,-397C424.06,-397 343.56,-397 343.56,-397 337.56,-397 331.56,-391 331.56,-385 331.56,-385 331.56,-367 331.56,-367 331.56,-361 337.56,-355 343.56,-355 343.56,-355 424.06,-355 424.06,-355 430.06,-355 436.06,-361 436.06,-367 436.06,-367 436.06,-385 436.06,-385 436.06,-391 430.06,-397 424.06,-397"/>
<text text-anchor="middle" x="383.81" y="-371.8" font-family="Segoe UI" font-size="14.00">willUnmount</text>
</g>
<!-- unmount&#45;&gt;willUnmount -->
<g id="edge11" class="edge">
<title>unmount&#45;&gt;willUnmount</title>
<path fill="none" stroke="black" d="M383.81,-425.76C383.81,-419.73 383.81,-413.49 383.81,-407.57"/>
<polygon fill="black" stroke="black" points="387.31,-407.38 383.81,-397.38 380.31,-407.38 387.31,-407.38"/>
</g>
<!-- willUnmount&#45;&gt;unmounted -->
<g id="edge12" class="edge">
<title>willUnmount&#45;&gt;unmounted</title>
<path fill="none" stroke="black" d="M383.81,-354.67C383.81,-348.97 383.81,-342.64 383.81,-336.48"/>
<polygon fill="black" stroke="black" points="387.31,-336.42 383.81,-326.42 380.31,-336.42 387.31,-336.42"/>
</g>
</g>
</svg>
