<?xml version="1.0" encoding="UTF-8" standalone="no"?>
<!DOCTYPE svg PUBLIC "-//W3C//DTD SVG 1.1//EN"
 "http://www.w3.org/Graphics/SVG/1.1/DTD/svg11.dtd">
<!-- Generated by graphviz version 2.38.0 (20140413.2041)
 -->
<!-- Title: G Pages: 1 -->
<svg width="522pt" height="510pt"
 viewBox="0.00 0.00 522.00 510.00" xmlns="http://www.w3.org/2000/svg" xmlns:xlink="http://www.w3.org/1999/xlink">
<g id="graph0" class="graph" transform="scale(1 1) rotate(0) translate(4 506)">
<title>G</title>
<polygon fill="white" stroke="none" points="-4,4 -4,-506 518,-506 518,4 -4,4"/>
<!-- render1 -->
<g id="node1" class="node"><title>render1</title>
<path fill="#dddddd" stroke="#dddddd" d="M90.5,-331C90.5,-331 43.5,-331 43.5,-331 37.5,-331 31.5,-325 31.5,-319 31.5,-319 31.5,-300 31.5,-300 31.5,-294 37.5,-288 43.5,-288 43.5,-288 90.5,-288 90.5,-288 96.5,-288 102.5,-294 102.5,-300 102.5,-300 102.5,-319 102.5,-319 102.5,-325 96.5,-331 90.5,-331"/>
<text text-anchor="middle" x="67" y="-305.8" font-family="Segoe UI" font-size="14.00">render</text>
</g>
<!-- created -->
<g id="node2" class="node"><title>created</title>
<path fill="none" stroke="#000000" d="M122,-259C122,-259 12,-259 12,-259 6,-259 0,-253 0,-247 0,-247 0,-228 0,-228 0,-222 6,-216 12,-216 12,-216 122,-216 122,-216 128,-216 134,-222 134,-228 134,-228 134,-247 134,-247 134,-253 128,-259 122,-259"/>
<text text-anchor="start" x="14" y="-234.8" font-family="Segoe UI" font-style="italic" font-size="14.00">Instances created</text>
</g>
<!-- render1&#45;&gt;created -->
<g id="edge3" class="edge"><title>render1&#45;&gt;created</title>
<path fill="none" stroke="black" d="M67,-287.876C67,-282.089 67,-275.667 67,-269.421"/>
<polygon fill="black" stroke="black" points="70.5001,-269.218 67,-259.218 63.5001,-269.218 70.5001,-269.218"/>
</g>
<!-- didMount -->
<g id="node5" class="node"><title>didMount</title>
<path fill="#dddddd" stroke="#dddddd" d="M100.5,-187C100.5,-187 33.5,-187 33.5,-187 27.5,-187 21.5,-181 21.5,-175 21.5,-175 21.5,-156 21.5,-156 21.5,-150 27.5,-144 33.5,-144 33.5,-144 100.5,-144 100.5,-144 106.5,-144 112.5,-150 112.5,-156 112.5,-156 112.5,-175 112.5,-175 112.5,-181 106.5,-187 100.5,-187"/>
<text text-anchor="middle" x="67" y="-161.8" font-family="Segoe UI" font-size="14.00">didMount</text>
</g>
<!-- created&#45;&gt;didMount -->
<g id="edge4" class="edge"><title>created&#45;&gt;didMount</title>
<path fill="none" stroke="black" d="M67,-215.876C67,-210.089 67,-203.667 67,-197.421"/>
<polygon fill="black" stroke="black" points="70.5001,-197.218 67,-187.218 63.5001,-197.218 70.5001,-197.218"/>
</g>
<!-- mount -->
<g id="node3" class="node"><title>mount</title>
<path fill="none" stroke="#000000" d="M114.5,-502C114.5,-502 19.5,-502 19.5,-502 13.5,-502 7.5,-496 7.5,-490 7.5,-490 7.5,-444 7.5,-444 7.5,-438 13.5,-432 19.5,-432 19.5,-432 114.5,-432 114.5,-432 120.5,-432 126.5,-438 126.5,-444 126.5,-444 126.5,-490 126.5,-490 126.5,-496 120.5,-502 114.5,-502"/>
<text text-anchor="start" x="33" y="-477.8" font-family="Segoe UI" font-weight="bold" font-size="14.00">Mounting</text>
<text text-anchor="start" x="21.5" y="-449.8" font-family="monospace" font-size="14.00">Roact.mount</text>
</g>
<!-- init -->
<g id="node4" class="node"><title>init</title>
<path fill="#dddddd" stroke="#dddddd" d="M82,-403C82,-403 52,-403 52,-403 46,-403 40,-397 40,-391 40,-391 40,-372 40,-372 40,-366 46,-360 52,-360 52,-360 82,-360 82,-360 88,-360 94,-366 94,-372 94,-372 94,-391 94,-391 94,-397 88,-403 82,-403"/>
<text text-anchor="middle" x="67" y="-377.8" font-family="Segoe UI" font-size="14.00">init</text>
</g>
<!-- mount&#45;&gt;init -->
<g id="edge1" class="edge"><title>mount&#45;&gt;init</title>
<path fill="none" stroke="black" d="M67,-431.555C67,-425.603 67,-419.446 67,-413.589"/>
<polygon fill="black" stroke="black" points="70.5001,-413.48 67,-403.48 63.5001,-413.48 70.5001,-413.48"/>
</g>
<!-- init&#45;&gt;render1 -->
<g id="edge2" class="edge"><title>init&#45;&gt;render1</title>
<path fill="none" stroke="black" d="M67,-359.876C67,-354.089 67,-347.667 67,-341.421"/>
<polygon fill="black" stroke="black" points="70.5001,-341.218 67,-331.218 63.5001,-341.218 70.5001,-341.218"/>
</g>
<!-- updated -->
<g id="node6" class="node"><title>updated</title>
<path fill="none" stroke="#000000" d="M278.5,-115C278.5,-115 163.5,-115 163.5,-115 157.5,-115 151.5,-109 151.5,-103 151.5,-103 151.5,-84 151.5,-84 151.5,-78 157.5,-72 163.5,-72 163.5,-72 278.5,-72 278.5,-72 284.5,-72 290.5,-78 290.5,-84 290.5,-84 290.5,-103 290.5,-103 290.5,-109 284.5,-115 278.5,-115"/>
<text text-anchor="start" x="165.5" y="-90.8" font-family="Segoe UI" font-style="italic" font-size="14.00">Instances updated</text>
</g>
<!-- didUpdate -->
<g id="node12" class="node"><title>didUpdate</title>
<path fill="#dddddd" stroke="#dddddd" d="M256.5,-43C256.5,-43 185.5,-43 185.5,-43 179.5,-43 173.5,-37 173.5,-31 173.5,-31 173.5,-12 173.5,-12 173.5,-6 179.5,-0 185.5,-0 185.5,-0 256.5,-0 256.5,-0 262.5,-0 268.5,-6 268.5,-12 268.5,-12 268.5,-31 268.5,-31 268.5,-37 262.5,-43 256.5,-43"/>
<text text-anchor="middle" x="221" y="-17.8" font-family="Segoe UI" font-size="14.00">didUpdate</text>
</g>
<!-- updated&#45;&gt;didUpdate -->
<g id="edge10" class="edge"><title>updated&#45;&gt;didUpdate</title>
<path fill="none" stroke="black" d="M221,-71.8763C221,-66.0891 221,-59.6673 221,-53.4211"/>
<polygon fill="black" stroke="black" points="224.5,-53.2182 221,-43.2182 217.5,-53.2182 224.5,-53.2182"/>
</g>
<!-- reconcile -->
<g id="node7" class="node"><title>reconcile</title>
<path fill="none" stroke="#000000" d="M285,-502C285,-502 157,-502 157,-502 151,-502 145,-496 145,-490 145,-490 145,-444 145,-444 145,-438 151,-432 157,-432 157,-432 285,-432 285,-432 291,-432 297,-438 297,-444 297,-444 297,-490 297,-490 297,-496 291,-502 285,-502"/>
<text text-anchor="start" x="174" y="-477.8" font-family="Segoe UI" font-weight="bold" font-size="14.00">Reconciliation</text>
<text text-anchor="start" x="159" y="-449.8" font-family="monospace" font-size="14.00">Roact.reconcile</text>
</g>
<!-- shouldUpdate -->
<g id="node8" class="node"><title>shouldUpdate</title>
<path fill="#dddddd" stroke="#dddddd" d="M267.5,-403C267.5,-403 174.5,-403 174.5,-403 168.5,-403 162.5,-397 162.5,-391 162.5,-391 162.5,-372 162.5,-372 162.5,-366 168.5,-360 174.5,-360 174.5,-360 267.5,-360 267.5,-360 273.5,-360 279.5,-366 279.5,-372 279.5,-372 279.5,-391 279.5,-391 279.5,-397 273.5,-403 267.5,-403"/>
<text text-anchor="middle" x="221" y="-377.8" font-family="Segoe UI" font-size="14.00">shouldUpdate</text>
</g>
<!-- reconcile&#45;&gt;shouldUpdate -->
<g id="edge5" class="edge"><title>reconcile&#45;&gt;shouldUpdate</title>
<path fill="none" stroke="black" d="M221,-431.555C221,-425.603 221,-419.446 221,-413.589"/>
<polygon fill="black" stroke="black" points="224.5,-413.48 221,-403.48 217.5,-413.48 224.5,-413.48"/>
</g>
<!-- getDerivedStateFromProps -->
<g id="node9" class="node"><title>getDerivedStateFromProps</title>
<path fill="#dddddd" stroke="#dddddd" d="M307.5,-331C307.5,-331 134.5,-331 134.5,-331 128.5,-331 122.5,-325 122.5,-319 122.5,-319 122.5,-300 122.5,-300 122.5,-294 128.5,-288 134.5,-288 134.5,-288 307.5,-288 307.5,-288 313.5,-288 319.5,-294 319.5,-300 319.5,-300 319.5,-319 319.5,-319 319.5,-325 313.5,-331 307.5,-331"/>
<text text-anchor="middle" x="221" y="-305.8" font-family="Segoe UI" font-size="14.00">getDerivedStateFromProps</text>
</g>
<!-- shouldUpdate&#45;&gt;getDerivedStateFromProps -->
<g id="edge6" class="edge"><title>shouldUpdate&#45;&gt;getDerivedStateFromProps</title>
<path fill="none" stroke="black" d="M221,-359.876C221,-354.089 221,-347.667 221,-341.421"/>
<polygon fill="black" stroke="black" points="224.5,-341.218 221,-331.218 217.5,-341.218 224.5,-341.218"/>
</g>
<!-- willUpdate -->
<g id="node10" class="node"><title>willUpdate</title>
<path fill="#dddddd" stroke="#dddddd" d="M257,-259C257,-259 185,-259 185,-259 179,-259 173,-253 173,-247 173,-247 173,-228 173,-228 173,-222 179,-216 185,-216 185,-216 257,-216 257,-216 263,-216 269,-222 269,-228 269,-228 269,-247 269,-247 269,-253 263,-259 257,-259"/>
<text text-anchor="middle" x="221" y="-233.8" font-family="Segoe UI" font-size="14.00">willUpdate</text>
</g>
<!-- getDerivedStateFromProps&#45;&gt;willUpdate -->
<g id="edge7" class="edge"><title>getDerivedStateFromProps&#45;&gt;willUpdate</title>
<path fill="none" stroke="black" d="M221,-287.876C221,-282.089 221,-275.667 221,-269.421"/>
<polygon fill="black" stroke="black" points="224.5,-269.218 221,-259.218 217.5,-269.218 224.5,-269.218"/>
</g>
<!-- render -->
<g id="node11" class="node"><title>render</title>
<path fill="#dddddd" stroke="#dddddd" d="M244.5,-187C244.5,-187 197.5,-187 197.5,-187 191.5,-187 185.5,-181 185.5,-175 185.5,-175 185.5,-156 185.5,-156 185.5,-150 191.5,-144 197.5,-144 197.5,-144 244.5,-144 244.5,-144 250.5,-144 256.5,-150 256.5,-156 256.5,-156 256.5,-175 256.5,-175 256.5,-181 250.5,-187 244.5,-187"/>
<text text-anchor="middle" x="221" y="-161.8" font-family="Segoe UI" font-size="14.00">render</text>
</g>
<!-- willUpdate&#45;&gt;render -->
<g id="edge8" class="edge"><title>willUpdate&#45;&gt;render</title>
<path fill="none" stroke="black" d="M221,-215.876C221,-210.089 221,-203.667 221,-197.421"/>
<polygon fill="black" stroke="black" points="224.5,-197.218 221,-187.218 217.5,-197.218 224.5,-197.218"/>
</g>
<!-- render&#45;&gt;updated -->
<g id="edge9" class="edge"><title>render&#45;&gt;updated</title>
<path fill="none" stroke="black" d="M221,-143.876C221,-138.089 221,-131.667 221,-125.421"/>
<polygon fill="black" stroke="black" points="224.5,-125.218 221,-115.218 217.5,-125.218 224.5,-125.218"/>
</g>
<!-- unmounted -->
<g id="node13" class="node"><title>unmounted</title>
<path fill="none" stroke="#000000" d="M502,-331C502,-331 350,-331 350,-331 344,-331 338,-325 338,-319 338,-319 338,-300 338,-300 338,-294 344,-288 350,-288 350,-288 502,-288 502,-288 508,-288 514,-294 514,-300 514,-300 514,-319 514,-319 514,-325 508,-331 502,-331"/>
<text text-anchor="start" x="352" y="-306.8" font-family="Segoe UI" font-style="italic" font-size="14.00">Component Unmounted</text>
</g>
<!-- unmount -->
<g id="node14" class="node"><title>unmount</title>
<path fill="none" stroke="#000000" d="M482,-502C482,-502 370,-502 370,-502 364,-502 358,-496 358,-490 358,-490 358,-444 358,-444 358,-438 364,-432 370,-432 370,-432 482,-432 482,-432 488,-432 494,-438 494,-444 494,-444 494,-490 494,-490 494,-496 488,-502 482,-502"/>
<text text-anchor="start" x="382.5" y="-477.8" font-family="Segoe UI" font-weight="bold" font-size="14.00">Unmounting</text>
<text text-anchor="start" x="372" y="-449.8" font-family="monospace" font-size="14.00">Roact.unmount</text>
</g>
<!-- willUnmount -->
<g id="node15" class="node"><title>willUnmount</title>
<path fill="#dddddd" stroke="#dddddd" d="M469,-403C469,-403 383,-403 383,-403 377,-403 371,-397 371,-391 371,-391 371,-372 371,-372 371,-366 377,-360 383,-360 383,-360 469,-360 469,-360 475,-360 481,-366 481,-372 481,-372 481,-391 481,-391 481,-397 475,-403 469,-403"/>
<text text-anchor="middle" x="426" y="-377.8" font-family="Segoe UI" font-size="14.00">willUnmount</text>
</g>
<!-- unmount&#45;&gt;willUnmount -->
<g id="edge11" class="edge"><title>unmount&#45;&gt;willUnmount</title>
<path fill="none" stroke="black" d="M426,-431.555C426,-425.603 426,-419.446 426,-413.589"/>
<polygon fill="black" stroke="black" points="429.5,-413.48 426,-403.48 422.5,-413.48 429.5,-413.48"/>
</g>
<!-- willUnmount&#45;&gt;unmounted -->
<g id="edge12" class="edge"><title>willUnmount&#45;&gt;unmounted</title>
<path fill="none" stroke="black" d="M426,-359.876C426,-354.089 426,-347.667 426,-341.421"/>
<polygon fill="black" stroke="black" points="429.5,-341.218 426,-331.218 422.5,-341.218 429.5,-341.218"/>
</g>
</g>
</svg>
