<?xml version="1.0" encoding="UTF-8" standalone="no"?>
<!DOCTYPE svg PUBLIC "-//W3C//DTD SVG 1.1//EN"
 "http://www.w3.org/Graphics/SVG/1.1/DTD/svg11.dtd">
<!-- Generated by graphviz version 2.38.0 (20140413.2041)
 -->
<!-- Title: G Pages: 1 -->
<svg width="496pt" height="510pt"
 viewBox="0.00 0.00 496.00 510.00" xmlns="http://www.w3.org/2000/svg" xmlns:xlink="http://www.w3.org/1999/xlink">
<g id="graph0" class="graph" transform="scale(1 1) rotate(0) translate(4 506)">
<title>G</title>
<polygon fill="white" stroke="none" points="-4,4 -4,-506 492,-506 492,4 -4,4"/>
<!-- render1 -->
<g id="node1" class="node"><title>render1</title>
<path fill="#dddddd" stroke="#dddddd" d="M92,-331C92,-331 45,-331 45,-331 39,-331 33,-325 33,-319 33,-319 33,-300 33,-300 33,-294 39,-288 45,-288 45,-288 92,-288 92,-288 98,-288 104,-294 104,-300 104,-300 104,-319 104,-319 104,-325 98,-331 92,-331"/>
<text text-anchor="middle" x="68.5" y="-305.8" font-family="Segoe UI" font-size="14.00">render</text>
</g>
<!-- created -->
<g id="node2" class="node"><title>created</title>
<path fill="none" stroke="#000000" d="M125,-259C125,-259 12,-259 12,-259 6,-259 0,-253 0,-247 0,-247 0,-228 0,-228 0,-222 6,-216 12,-216 12,-216 125,-216 125,-216 131,-216 137,-222 137,-228 137,-228 137,-247 137,-247 137,-253 131,-259 125,-259"/>
<text text-anchor="start" x="14" y="-234.8" font-family="Segoe UI" font-style="italic" font-size="14.00">Instances Created</text>
</g>
<!-- render1&#45;&gt;created -->
<g id="edge3" class="edge"><title>render1&#45;&gt;created</title>
<path fill="none" stroke="black" d="M68.5,-287.876C68.5,-282.089 68.5,-275.667 68.5,-269.421"/>
<polygon fill="black" stroke="black" points="72.0001,-269.218 68.5,-259.218 65.0001,-269.218 72.0001,-269.218"/>
</g>
<!-- didMount -->
<g id="node5" class="node"><title>didMount</title>
<path fill="#dddddd" stroke="#dddddd" d="M102,-187C102,-187 35,-187 35,-187 29,-187 23,-181 23,-175 23,-175 23,-156 23,-156 23,-150 29,-144 35,-144 35,-144 102,-144 102,-144 108,-144 114,-150 114,-156 114,-156 114,-175 114,-175 114,-181 108,-187 102,-187"/>
<text text-anchor="middle" x="68.5" y="-161.8" font-family="Segoe UI" font-size="14.00">didMount</text>
</g>
<!-- created&#45;&gt;didMount -->
<g id="edge4" class="edge"><title>created&#45;&gt;didMount</title>
<path fill="none" stroke="black" d="M68.5,-215.876C68.5,-210.089 68.5,-203.667 68.5,-197.421"/>
<polygon fill="black" stroke="black" points="72.0001,-197.218 68.5,-187.218 65.0001,-197.218 72.0001,-197.218"/>
</g>
<!-- mount -->
<g id="node3" class="node"><title>mount</title>
<path fill="none" stroke="#000000" d="M116,-502C116,-502 21,-502 21,-502 15,-502 9,-496 9,-490 9,-490 9,-444 9,-444 9,-438 15,-432 21,-432 21,-432 116,-432 116,-432 122,-432 128,-438 128,-444 128,-444 128,-490 128,-490 128,-496 122,-502 116,-502"/>
<text text-anchor="start" x="34.5" y="-477.8" font-family="Segoe UI" font-weight="bold" font-size="14.00">Mounting</text>
<text text-anchor="start" x="23" y="-449.8" font-family="monospace" font-size="14.00">Roact.mount</text>
</g>
<!-- init -->
<g id="node4" class="node"><title>init</title>
<path fill="#dddddd" stroke="#dddddd" d="M83.5,-403C83.5,-403 53.5,-403 53.5,-403 47.5,-403 41.5,-397 41.5,-391 41.5,-391 41.5,-372 41.5,-372 41.5,-366 47.5,-360 53.5,-360 53.5,-360 83.5,-360 83.5,-360 89.5,-360 95.5,-366 95.5,-372 95.5,-372 95.5,-391 95.5,-391 95.5,-397 89.5,-403 83.5,-403"/>
<text text-anchor="middle" x="68.5" y="-377.8" font-family="Segoe UI" font-size="14.00">init</text>
</g>
<!-- mount&#45;&gt;init -->
<g id="edge1" class="edge"><title>mount&#45;&gt;init</title>
<path fill="none" stroke="black" d="M68.5,-431.555C68.5,-425.603 68.5,-419.446 68.5,-413.589"/>
<polygon fill="black" stroke="black" points="72.0001,-413.48 68.5,-403.48 65.0001,-413.48 72.0001,-413.48"/>
</g>
<!-- init&#45;&gt;render1 -->
<g id="edge2" class="edge"><title>init&#45;&gt;render1</title>
<path fill="none" stroke="black" d="M68.5,-359.876C68.5,-354.089 68.5,-347.667 68.5,-341.421"/>
<polygon fill="black" stroke="black" points="72.0001,-341.218 68.5,-331.218 65.0001,-341.218 72.0001,-341.218"/>
</g>
<!-- updated -->
<g id="node6" class="node"><title>updated</title>
<path fill="none" stroke="#000000" d="M278.5,-115C278.5,-115 162.5,-115 162.5,-115 156.5,-115 150.5,-109 150.5,-103 150.5,-103 150.5,-84 150.5,-84 150.5,-78 156.5,-72 162.5,-72 162.5,-72 278.5,-72 278.5,-72 284.5,-72 290.5,-78 290.5,-84 290.5,-84 290.5,-103 290.5,-103 290.5,-109 284.5,-115 278.5,-115"/>
<text text-anchor="start" x="164.5" y="-90.8" font-family="Segoe UI" font-style="italic" font-size="14.00">Instances Updated</text>
</g>
<!-- didUpdate -->
<g id="node12" class="node"><title>didUpdate</title>
<path fill="#dddddd" stroke="#dddddd" d="M256,-43C256,-43 185,-43 185,-43 179,-43 173,-37 173,-31 173,-31 173,-12 173,-12 173,-6 179,-0 185,-0 185,-0 256,-0 256,-0 262,-0 268,-6 268,-12 268,-12 268,-31 268,-31 268,-37 262,-43 256,-43"/>
<text text-anchor="middle" x="220.5" y="-17.8" font-family="Segoe UI" font-size="14.00">didUpdate</text>
</g>
<!-- updated&#45;&gt;didUpdate -->
<g id="edge10" class="edge"><title>updated&#45;&gt;didUpdate</title>
<path fill="none" stroke="black" d="M220.5,-71.8763C220.5,-66.0891 220.5,-59.6673 220.5,-53.4211"/>
<polygon fill="black" stroke="black" points="224,-53.2182 220.5,-43.2182 217,-53.2182 224,-53.2182"/>
</g>
<!-- update -->
<g id="node7" class="node"><title>update</title>
<path fill="none" stroke="#000000" d="M272.5,-502C272.5,-502 168.5,-502 168.5,-502 162.5,-502 156.5,-496 156.5,-490 156.5,-490 156.5,-444 156.5,-444 156.5,-438 162.5,-432 168.5,-432 168.5,-432 272.5,-432 272.5,-432 278.5,-432 284.5,-438 284.5,-444 284.5,-444 284.5,-490 284.5,-490 284.5,-496 278.5,-502 272.5,-502"/>
<text text-anchor="start" x="188.5" y="-477.8" font-family="Segoe UI" font-weight="bold" font-size="14.00">Updating</text>
<text text-anchor="start" x="170.5" y="-449.8" font-family="monospace" font-size="14.00">Roact.update</text>
</g>
<!-- shouldUpdate -->
<g id="node8" class="node"><title>shouldUpdate</title>
<path fill="#dddddd" stroke="#dddddd" d="M267,-403C267,-403 174,-403 174,-403 168,-403 162,-397 162,-391 162,-391 162,-372 162,-372 162,-366 168,-360 174,-360 174,-360 267,-360 267,-360 273,-360 279,-366 279,-372 279,-372 279,-391 279,-391 279,-397 273,-403 267,-403"/>
<text text-anchor="middle" x="220.5" y="-377.8" font-family="Segoe UI" font-size="14.00">shouldUpdate</text>
</g>
<!-- update&#45;&gt;shouldUpdate -->
<g id="edge5" class="edge"><title>update&#45;&gt;shouldUpdate</title>
<path fill="none" stroke="black" d="M220.5,-431.555C220.5,-425.603 220.5,-419.446 220.5,-413.589"/>
<polygon fill="black" stroke="black" points="224,-413.48 220.5,-403.48 217,-413.48 224,-413.48"/>
</g>
<!-- getDerivedStateFromProps -->
<g id="node9" class="node"><title>getDerivedStateFromProps</title>
<path fill="#dddddd" stroke="#dddddd" d="M307,-331C307,-331 134,-331 134,-331 128,-331 122,-325 122,-319 122,-319 122,-300 122,-300 122,-294 128,-288 134,-288 134,-288 307,-288 307,-288 313,-288 319,-294 319,-300 319,-300 319,-319 319,-319 319,-325 313,-331 307,-331"/>
<text text-anchor="middle" x="220.5" y="-305.8" font-family="Segoe UI" font-size="14.00">getDerivedStateFromProps</text>
</g>
<!-- shouldUpdate&#45;&gt;getDerivedStateFromProps -->
<g id="edge6" class="edge"><title>shouldUpdate&#45;&gt;getDerivedStateFromProps</title>
<path fill="none" stroke="black" d="M220.5,-359.876C220.5,-354.089 220.5,-347.667 220.5,-341.421"/>
<polygon fill="black" stroke="black" points="224,-341.218 220.5,-331.218 217,-341.218 224,-341.218"/>
</g>
<!-- willUpdate -->
<g id="node10" class="node"><title>willUpdate</title>
<path fill="#dddddd" stroke="#dddddd" d="M256.5,-259C256.5,-259 184.5,-259 184.5,-259 178.5,-259 172.5,-253 172.5,-247 172.5,-247 172.5,-228 172.5,-228 172.5,-222 178.5,-216 184.5,-216 184.5,-216 256.5,-216 256.5,-216 262.5,-216 268.5,-222 268.5,-228 268.5,-228 268.5,-247 268.5,-247 268.5,-253 262.5,-259 256.5,-259"/>
<text text-anchor="middle" x="220.5" y="-233.8" font-family="Segoe UI" font-size="14.00">willUpdate</text>
</g>
<!-- getDerivedStateFromProps&#45;&gt;willUpdate -->
<g id="edge7" class="edge"><title>getDerivedStateFromProps&#45;&gt;willUpdate</title>
<path fill="none" stroke="black" d="M220.5,-287.876C220.5,-282.089 220.5,-275.667 220.5,-269.421"/>
<polygon fill="black" stroke="black" points="224,-269.218 220.5,-259.218 217,-269.218 224,-269.218"/>
</g>
<!-- render -->
<g id="node11" class="node"><title>render</title>
<path fill="#dddddd" stroke="#dddddd" d="M244,-187C244,-187 197,-187 197,-187 191,-187 185,-181 185,-175 185,-175 185,-156 185,-156 185,-150 191,-144 197,-144 197,-144 244,-144 244,-144 250,-144 256,-150 256,-156 256,-156 256,-175 256,-175 256,-181 250,-187 244,-187"/>
<text text-anchor="middle" x="220.5" y="-161.8" font-family="Segoe UI" font-size="14.00">render</text>
</g>
<!-- willUpdate&#45;&gt;render -->
<g id="edge8" class="edge"><title>willUpdate&#45;&gt;render</title>
<path fill="none" stroke="black" d="M220.5,-215.876C220.5,-210.089 220.5,-203.667 220.5,-197.421"/>
<polygon fill="black" stroke="black" points="224,-197.218 220.5,-187.218 217,-197.218 224,-197.218"/>
</g>
<!-- render&#45;&gt;updated -->
<g id="edge9" class="edge"><title>render&#45;&gt;updated</title>
<path fill="none" stroke="black" d="M220.5,-143.876C220.5,-138.089 220.5,-131.667 220.5,-125.421"/>
<polygon fill="black" stroke="black" points="224,-125.218 220.5,-115.218 217,-125.218 224,-125.218"/>
</g>
<!-- unmounted -->
<g id="node13" class="node"><title>unmounted</title>
<path fill="none" stroke="#000000" d="M476,-331C476,-331 349,-331 349,-331 343,-331 337,-325 337,-319 337,-319 337,-300 337,-300 337,-294 343,-288 349,-288 349,-288 476,-288 476,-288 482,-288 488,-294 488,-300 488,-300 488,-319 488,-319 488,-325 482,-331 476,-331"/>
<text text-anchor="start" x="351" y="-306.8" font-family="Segoe UI" font-style="italic" font-size="14.00">Instances Destroyed</text>
</g>
<!-- unmount -->
<g id="node14" class="node"><title>unmount</title>
<path fill="none" stroke="#000000" d="M468.5,-502C468.5,-502 356.5,-502 356.5,-502 350.5,-502 344.5,-496 344.5,-490 344.5,-490 344.5,-444 344.5,-444 344.5,-438 350.5,-432 356.5,-432 356.5,-432 468.5,-432 468.5,-432 474.5,-432 480.5,-438 480.5,-444 480.5,-444 480.5,-490 480.5,-490 480.5,-496 474.5,-502 468.5,-502"/>
<text text-anchor="start" x="369" y="-477.8" font-family="Segoe UI" font-weight="bold" font-size="14.00">Unmounting</text>
<text text-anchor="start" x="358.5" y="-449.8" font-family="monospace" font-size="14.00">Roact.unmount</text>
</g>
<!-- willUnmount -->
<g id="node15" class="node"><title>willUnmount</title>
<path fill="#dddddd" stroke="#dddddd" d="M455.5,-403C455.5,-403 369.5,-403 369.5,-403 363.5,-403 357.5,-397 357.5,-391 357.5,-391 357.5,-372 357.5,-372 357.5,-366 363.5,-360 369.5,-360 369.5,-360 455.5,-360 455.5,-360 461.5,-360 467.5,-366 467.5,-372 467.5,-372 467.5,-391 467.5,-391 467.5,-397 461.5,-403 455.5,-403"/>
<text text-anchor="middle" x="412.5" y="-377.8" font-family="Segoe UI" font-size="14.00">willUnmount</text>
</g>
<!-- unmount&#45;&gt;willUnmount -->
<g id="edge11" class="edge"><title>unmount&#45;&gt;willUnmount</title>
<path fill="none" stroke="black" d="M412.5,-431.555C412.5,-425.603 412.5,-419.446 412.5,-413.589"/>
<polygon fill="black" stroke="black" points="416,-413.48 412.5,-403.48 409,-413.48 416,-413.48"/>
</g>
<!-- willUnmount&#45;&gt;unmounted -->
<g id="edge12" class="edge"><title>willUnmount&#45;&gt;unmounted</title>
<path fill="none" stroke="black" d="M412.5,-359.876C412.5,-354.089 412.5,-347.667 412.5,-341.421"/>
<polygon fill="black" stroke="black" points="416,-341.218 412.5,-331.218 409,-341.218 416,-341.218"/>
</g>
</g>
</svg>
