<?xml version="1.0" encoding="UTF-8" standalone="no"?>
<!DOCTYPE svg PUBLIC "-//W3C//DTD SVG 1.1//EN"
 "http://www.w3.org/Graphics/SVG/1.1/DTD/svg11.dtd">
<!-- Generated by graphviz version 2.38.0 (20140413.2041)
 -->
<!-- Title: G Pages: 1 -->
<svg width="520pt" height="510pt"
 viewBox="0.00 0.00 520.00 510.00" xmlns="http://www.w3.org/2000/svg" xmlns:xlink="http://www.w3.org/1999/xlink">
<g id="graph0" class="graph" transform="scale(1 1) rotate(0) translate(4 506)">
<title>G</title>
<polygon fill="white" stroke="none" points="-4,4 -4,-506 516,-506 516,4 -4,4"/>
<!-- render1 -->
<g id="node1" class="node"><title>render1</title>
<path fill="#dddddd" stroke="#dddddd" d="M90.5,-331C90.5,-331 43.5,-331 43.5,-331 37.5,-331 31.5,-325 31.5,-319 31.5,-319 31.5,-300 31.5,-300 31.5,-294 37.5,-288 43.5,-288 43.5,-288 90.5,-288 90.5,-288 96.5,-288 102.5,-294 102.5,-300 102.5,-300 102.5,-319 102.5,-319 102.5,-325 96.5,-331 90.5,-331"/>
<text text-anchor="middle" x="67" y="-305.8" font-family="Segoe UI" font-size="14.00">render</text>
</g>
<!-- created -->
<g id="node2" class="node"><title>created</title>
<path fill="none" stroke="#000000" d="M122,-259C122,-259 12,-259 12,-259 6,-259 0,-253 0,-247 0,-247 0,-228 0,-228 0,-222 6,-216 12,-216 12,-216 122,-216 122,-216 128,-216 134,-222 134,-228 134,-228 134,-247 134,-247 134,-253 128,-259 122,-259"/>
<text text-anchor="start" x="14" y="-234.8" font-family="Segoe UI" font-style="italic" font-size="14.00">Instances created</text>
</g>
<!-- render1&#45;&gt;created -->
<g id="edge3" class="edge"><title>render1&#45;&gt;created</title>
<path fill="none" stroke="black" d="M67,-287.876C67,-282.089 67,-275.667 67,-269.421"/>
<polygon fill="black" stroke="black" points="70.5001,-269.218 67,-259.218 63.5001,-269.218 70.5001,-269.218"/>
</g>
<!-- didMount -->
<g id="node5" class="node"><title>didMount</title>
<path fill="#dddddd" stroke="#dddddd" d="M100.5,-187C100.5,-187 33.5,-187 33.5,-187 27.5,-187 21.5,-181 21.5,-175 21.5,-175 21.5,-156 21.5,-156 21.5,-150 27.5,-144 33.5,-144 33.5,-144 100.5,-144 100.5,-144 106.5,-144 112.5,-150 112.5,-156 112.5,-156 112.5,-175 112.5,-175 112.5,-181 106.5,-187 100.5,-187"/>
<text text-anchor="middle" x="67" y="-161.8" font-family="Segoe UI" font-size="14.00">didMount</text>
</g>
<!-- created&#45;&gt;didMount -->
<g id="edge4" class="edge"><title>created&#45;&gt;didMount</title>
<path fill="none" stroke="black" d="M67,-215.876C67,-210.089 67,-203.667 67,-197.421"/>
<polygon fill="black" stroke="black" points="70.5001,-197.218 67,-187.218 63.5001,-197.218 70.5001,-197.218"/>
</g>
<!-- reify -->
<g id="node3" class="node"><title>reify</title>
<path fill="none" stroke="#000000" d="M104.5,-502C104.5,-502 29.5,-502 29.5,-502 23.5,-502 17.5,-496 17.5,-490 17.5,-490 17.5,-444 17.5,-444 17.5,-438 23.5,-432 29.5,-432 29.5,-432 104.5,-432 104.5,-432 110.5,-432 116.5,-438 116.5,-444 116.5,-444 116.5,-490 116.5,-490 116.5,-496 110.5,-502 104.5,-502"/>
<text text-anchor="start" x="31.5" y="-477.8" font-family="Segoe UI" font-weight="bold" font-size="14.00">Reification</text>
<text text-anchor="start" x="41.5" y="-449.8" font-family="Segoe UI" font-size="14.00">(Create)</text>
</g>
<!-- init -->
<g id="node4" class="node"><title>init</title>
<path fill="#dddddd" stroke="#dddddd" d="M82,-403C82,-403 52,-403 52,-403 46,-403 40,-397 40,-391 40,-391 40,-372 40,-372 40,-366 46,-360 52,-360 52,-360 82,-360 82,-360 88,-360 94,-366 94,-372 94,-372 94,-391 94,-391 94,-397 88,-403 82,-403"/>
<text text-anchor="middle" x="67" y="-377.8" font-family="Segoe UI" font-size="14.00">init</text>
</g>
<!-- reify&#45;&gt;init -->
<g id="edge1" class="edge"><title>reify&#45;&gt;init</title>
<path fill="none" stroke="black" d="M67,-431.555C67,-425.603 67,-419.446 67,-413.589"/>
<polygon fill="black" stroke="black" points="70.5001,-413.48 67,-403.48 63.5001,-413.48 70.5001,-413.48"/>
</g>
<!-- init&#45;&gt;render1 -->
<g id="edge2" class="edge"><title>init&#45;&gt;render1</title>
<path fill="none" stroke="black" d="M67,-359.876C67,-354.089 67,-347.667 67,-341.421"/>
<polygon fill="black" stroke="black" points="70.5001,-341.218 67,-331.218 63.5001,-341.218 70.5001,-341.218"/>
</g>
<!-- updated -->
<g id="node6" class="node"><title>updated</title>
<path fill="none" stroke="#000000" d="M276.5,-115C276.5,-115 161.5,-115 161.5,-115 155.5,-115 149.5,-109 149.5,-103 149.5,-103 149.5,-84 149.5,-84 149.5,-78 155.5,-72 161.5,-72 161.5,-72 276.5,-72 276.5,-72 282.5,-72 288.5,-78 288.5,-84 288.5,-84 288.5,-103 288.5,-103 288.5,-109 282.5,-115 276.5,-115"/>
<text text-anchor="start" x="163.5" y="-90.8" font-family="Segoe UI" font-style="italic" font-size="14.00">Instances updated</text>
</g>
<!-- didUpdate -->
<g id="node12" class="node"><title>didUpdate</title>
<path fill="#dddddd" stroke="#dddddd" d="M254.5,-43C254.5,-43 183.5,-43 183.5,-43 177.5,-43 171.5,-37 171.5,-31 171.5,-31 171.5,-12 171.5,-12 171.5,-6 177.5,-0 183.5,-0 183.5,-0 254.5,-0 254.5,-0 260.5,-0 266.5,-6 266.5,-12 266.5,-12 266.5,-31 266.5,-31 266.5,-37 260.5,-43 254.5,-43"/>
<text text-anchor="middle" x="219" y="-17.8" font-family="Segoe UI" font-size="14.00">didUpdate</text>
</g>
<!-- updated&#45;&gt;didUpdate -->
<g id="edge10" class="edge"><title>updated&#45;&gt;didUpdate</title>
<path fill="none" stroke="black" d="M219,-71.8763C219,-66.0891 219,-59.6673 219,-53.4211"/>
<polygon fill="black" stroke="black" points="222.5,-53.2182 219,-43.2182 215.5,-53.2182 222.5,-53.2182"/>
</g>
<!-- reconcile -->
<g id="node7" class="node"><title>reconcile</title>
<path fill="none" stroke="#000000" d="M268,-502C268,-502 170,-502 170,-502 164,-502 158,-496 158,-490 158,-490 158,-444 158,-444 158,-438 164,-432 170,-432 170,-432 268,-432 268,-432 274,-432 280,-438 280,-444 280,-444 280,-490 280,-490 280,-496 274,-502 268,-502"/>
<text text-anchor="start" x="172" y="-477.8" font-family="Segoe UI" font-weight="bold" font-size="14.00">Reconciliation</text>
<text text-anchor="start" x="191.5" y="-449.8" font-family="Segoe UI" font-size="14.00">(Update)</text>
</g>
<!-- shouldUpdate -->
<g id="node8" class="node"><title>shouldUpdate</title>
<path fill="#dddddd" stroke="#dddddd" d="M265.5,-403C265.5,-403 172.5,-403 172.5,-403 166.5,-403 160.5,-397 160.5,-391 160.5,-391 160.5,-372 160.5,-372 160.5,-366 166.5,-360 172.5,-360 172.5,-360 265.5,-360 265.5,-360 271.5,-360 277.5,-366 277.5,-372 277.5,-372 277.5,-391 277.5,-391 277.5,-397 271.5,-403 265.5,-403"/>
<text text-anchor="middle" x="219" y="-377.8" font-family="Segoe UI" font-size="14.00">shouldUpdate</text>
</g>
<!-- reconcile&#45;&gt;shouldUpdate -->
<g id="edge5" class="edge"><title>reconcile&#45;&gt;shouldUpdate</title>
<path fill="none" stroke="black" d="M219,-431.555C219,-425.603 219,-419.446 219,-413.589"/>
<polygon fill="black" stroke="black" points="222.5,-413.48 219,-403.48 215.5,-413.48 222.5,-413.48"/>
</g>
<!-- getDerivedStateFromProps -->
<g id="node9" class="node"><title>getDerivedStateFromProps</title>
<path fill="#dddddd" stroke="#dddddd" d="M305.5,-331C305.5,-331 132.5,-331 132.5,-331 126.5,-331 120.5,-325 120.5,-319 120.5,-319 120.5,-300 120.5,-300 120.5,-294 126.5,-288 132.5,-288 132.5,-288 305.5,-288 305.5,-288 311.5,-288 317.5,-294 317.5,-300 317.5,-300 317.5,-319 317.5,-319 317.5,-325 311.5,-331 305.5,-331"/>
<text text-anchor="middle" x="219" y="-305.8" font-family="Segoe UI" font-size="14.00">getDerivedStateFromProps</text>
</g>
<!-- shouldUpdate&#45;&gt;getDerivedStateFromProps -->
<g id="edge6" class="edge"><title>shouldUpdate&#45;&gt;getDerivedStateFromProps</title>
<path fill="none" stroke="black" d="M219,-359.876C219,-354.089 219,-347.667 219,-341.421"/>
<polygon fill="black" stroke="black" points="222.5,-341.218 219,-331.218 215.5,-341.218 222.5,-341.218"/>
</g>
<!-- willUpdate -->
<g id="node10" class="node"><title>willUpdate</title>
<path fill="#dddddd" stroke="#dddddd" d="M255,-259C255,-259 183,-259 183,-259 177,-259 171,-253 171,-247 171,-247 171,-228 171,-228 171,-222 177,-216 183,-216 183,-216 255,-216 255,-216 261,-216 267,-222 267,-228 267,-228 267,-247 267,-247 267,-253 261,-259 255,-259"/>
<text text-anchor="middle" x="219" y="-233.8" font-family="Segoe UI" font-size="14.00">willUpdate</text>
</g>
<!-- getDerivedStateFromProps&#45;&gt;willUpdate -->
<g id="edge7" class="edge"><title>getDerivedStateFromProps&#45;&gt;willUpdate</title>
<path fill="none" stroke="black" d="M219,-287.876C219,-282.089 219,-275.667 219,-269.421"/>
<polygon fill="black" stroke="black" points="222.5,-269.218 219,-259.218 215.5,-269.218 222.5,-269.218"/>
</g>
<!-- render -->
<g id="node11" class="node"><title>render</title>
<path fill="#dddddd" stroke="#dddddd" d="M242.5,-187C242.5,-187 195.5,-187 195.5,-187 189.5,-187 183.5,-181 183.5,-175 183.5,-175 183.5,-156 183.5,-156 183.5,-150 189.5,-144 195.5,-144 195.5,-144 242.5,-144 242.5,-144 248.5,-144 254.5,-150 254.5,-156 254.5,-156 254.5,-175 254.5,-175 254.5,-181 248.5,-187 242.5,-187"/>
<text text-anchor="middle" x="219" y="-161.8" font-family="Segoe UI" font-size="14.00">render</text>
</g>
<!-- willUpdate&#45;&gt;render -->
<g id="edge8" class="edge"><title>willUpdate&#45;&gt;render</title>
<path fill="none" stroke="black" d="M219,-215.876C219,-210.089 219,-203.667 219,-197.421"/>
<polygon fill="black" stroke="black" points="222.5,-197.218 219,-187.218 215.5,-197.218 222.5,-197.218"/>
</g>
<!-- render&#45;&gt;updated -->
<g id="edge9" class="edge"><title>render&#45;&gt;updated</title>
<path fill="none" stroke="black" d="M219,-143.876C219,-138.089 219,-131.667 219,-125.421"/>
<polygon fill="black" stroke="black" points="222.5,-125.218 219,-115.218 215.5,-125.218 222.5,-125.218"/>
</g>
<!-- unmounted -->
<g id="node13" class="node"><title>unmounted</title>
<path fill="none" stroke="#000000" d="M500,-331C500,-331 348,-331 348,-331 342,-331 336,-325 336,-319 336,-319 336,-300 336,-300 336,-294 342,-288 348,-288 348,-288 500,-288 500,-288 506,-288 512,-294 512,-300 512,-300 512,-319 512,-319 512,-325 506,-331 500,-331"/>
<text text-anchor="start" x="350" y="-306.8" font-family="Segoe UI" font-style="italic" font-size="14.00">Component Unmounted</text>
</g>
<!-- unmount -->
<g id="node14" class="node"><title>unmount</title>
<path fill="none" stroke="#000000" d="M469.5,-502C469.5,-502 378.5,-502 378.5,-502 372.5,-502 366.5,-496 366.5,-490 366.5,-490 366.5,-444 366.5,-444 366.5,-438 372.5,-432 378.5,-432 378.5,-432 469.5,-432 469.5,-432 475.5,-432 481.5,-438 481.5,-444 481.5,-444 481.5,-490 481.5,-490 481.5,-496 475.5,-502 469.5,-502"/>
<text text-anchor="start" x="380.5" y="-477.8" font-family="Segoe UI" font-weight="bold" font-size="14.00">Unmounting</text>
<text text-anchor="start" x="395" y="-449.8" font-family="Segoe UI" font-size="14.00">(Destroy)</text>
</g>
<!-- willUnmount -->
<g id="node15" class="node"><title>willUnmount</title>
<path fill="#dddddd" stroke="#dddddd" d="M467,-403C467,-403 381,-403 381,-403 375,-403 369,-397 369,-391 369,-391 369,-372 369,-372 369,-366 375,-360 381,-360 381,-360 467,-360 467,-360 473,-360 479,-366 479,-372 479,-372 479,-391 479,-391 479,-397 473,-403 467,-403"/>
<text text-anchor="middle" x="424" y="-377.8" font-family="Segoe UI" font-size="14.00">willUnmount</text>
</g>
<!-- unmount&#45;&gt;willUnmount -->
<g id="edge11" class="edge"><title>unmount&#45;&gt;willUnmount</title>
<path fill="none" stroke="black" d="M424,-431.555C424,-425.603 424,-419.446 424,-413.589"/>
<polygon fill="black" stroke="black" points="427.5,-413.48 424,-403.48 420.5,-413.48 427.5,-413.48"/>
</g>
<!-- willUnmount&#45;&gt;unmounted -->
<g id="edge12" class="edge"><title>willUnmount&#45;&gt;unmounted</title>
<path fill="none" stroke="black" d="M424,-359.876C424,-354.089 424,-347.667 424,-341.421"/>
<polygon fill="black" stroke="black" points="427.5,-341.218 424,-331.218 420.5,-341.218 427.5,-341.218"/>
</g>
</g>
</svg>
